<mxfile host="app.diagrams.net" agent="Mozilla/5.0 (Macintosh; Intel Mac OS X 10_15_7) AppleWebKit/537.36 (KHTML, like Gecko) Chrome/139.0.0.0 Safari/537.36" version="25.0.3">
  <diagram name="Page-1" id="ah82pdjyP5S4gL2Z_ZkB">
    <mxGraphModel dx="1687" dy="964" grid="1" gridSize="10" guides="1" tooltips="1" connect="1" arrows="1" fold="1" page="1" pageScale="1" pageWidth="827" pageHeight="1169" math="0" shadow="0">
      <root>
        <mxCell id="0" />
        <mxCell id="1" parent="0" />
        <mxCell id="ePLq6_zW1clj5C6yVysr-7" style="edgeStyle=orthogonalEdgeStyle;rounded=0;orthogonalLoop=1;jettySize=auto;html=1;exitX=1;exitY=0.5;exitDx=0;exitDy=0;" edge="1" parent="1" source="ePLq6_zW1clj5C6yVysr-2">
          <mxGeometry relative="1" as="geometry">
            <mxPoint x="539.9999999999998" y="389.875" as="targetPoint" />
          </mxGeometry>
        </mxCell>
        <mxCell id="ePLq6_zW1clj5C6yVysr-2" value="" style="rounded=1;whiteSpace=wrap;html=1;" vertex="1" parent="1">
          <mxGeometry x="300" y="370" width="140" height="40" as="geometry" />
        </mxCell>
        <mxCell id="ePLq6_zW1clj5C6yVysr-3" value="" style="dashed=0;outlineConnect=0;html=1;align=center;labelPosition=center;verticalLabelPosition=bottom;verticalAlign=top;shape=mxgraph.weblogos.github" vertex="1" parent="1">
          <mxGeometry x="302.5" y="375" width="30" height="30" as="geometry" />
        </mxCell>
        <mxCell id="ePLq6_zW1clj5C6yVysr-16" style="edgeStyle=orthogonalEdgeStyle;rounded=0;orthogonalLoop=1;jettySize=auto;html=1;exitX=1;exitY=0.5;exitDx=0;exitDy=0;entryX=0;entryY=0.5;entryDx=0;entryDy=0;" edge="1" parent="1" source="ePLq6_zW1clj5C6yVysr-14" target="ePLq6_zW1clj5C6yVysr-17">
          <mxGeometry relative="1" as="geometry">
            <mxPoint x="460" y="500" as="targetPoint" />
            <mxPoint x="649.9999999999998" y="340" as="sourcePoint" />
            <Array as="points">
              <mxPoint x="780" y="390" />
              <mxPoint x="780" y="390" />
            </Array>
          </mxGeometry>
        </mxCell>
        <mxCell id="ePLq6_zW1clj5C6yVysr-14" value="" style="rounded=1;whiteSpace=wrap;html=1;" vertex="1" parent="1">
          <mxGeometry x="540" y="360" width="200" height="60" as="geometry" />
        </mxCell>
        <mxCell id="ePLq6_zW1clj5C6yVysr-4" value="&lt;b&gt;&lt;i&gt;Github Repository&lt;/i&gt;&lt;/b&gt;" style="text;strokeColor=none;align=center;fillColor=none;html=1;verticalAlign=middle;whiteSpace=wrap;rounded=0;" vertex="1" parent="1">
          <mxGeometry x="340" y="380" width="75" height="20" as="geometry" />
        </mxCell>
        <mxCell id="ePLq6_zW1clj5C6yVysr-5" value="&lt;font style=&quot;font-size: 11px;&quot; color=&quot;#cc0000&quot;&gt;&lt;br&gt;&lt;/font&gt;&lt;div&gt;&lt;b&gt;&lt;i&gt;&lt;font style=&quot;font-size: 11px;&quot; color=&quot;#cc0000&quot;&gt;- push&lt;/font&gt;&lt;/i&gt;&lt;/b&gt;&lt;/div&gt;&lt;div&gt;&lt;b&gt;&lt;i&gt;&lt;font style=&quot;font-size: 11px;&quot; color=&quot;#cc0000&quot;&gt;- pull_request&lt;/font&gt;&lt;/i&gt;&lt;/b&gt;&lt;/div&gt;&lt;div&gt;&lt;b&gt;&lt;i&gt;&lt;font style=&quot;font-size: 11px;&quot; color=&quot;#cc0000&quot;&gt;- workflow_dispatch&lt;/font&gt;&lt;/i&gt;&lt;/b&gt;&lt;/div&gt;" style="text;strokeColor=none;align=right;fillColor=none;html=1;verticalAlign=middle;whiteSpace=wrap;rounded=0;" vertex="1" parent="1">
          <mxGeometry x="610" y="365" width="125" height="35" as="geometry" />
        </mxCell>
        <mxCell id="ePLq6_zW1clj5C6yVysr-6" value="&lt;b style=&quot;forced-color-adjust: none; font-family: Helvetica; font-style: normal; font-variant-ligatures: normal; font-variant-caps: normal; letter-spacing: normal; orphans: 2; text-align: center; text-indent: 0px; text-transform: none; widows: 2; word-spacing: 0px; -webkit-text-stroke-width: 0px; white-space: normal; background-color: rgb(251, 251, 251); text-decoration-thickness: initial; text-decoration-style: initial; text-decoration-color: initial;&quot;&gt;&lt;i style=&quot;forced-color-adjust: none;&quot;&gt;&lt;font style=&quot;font-size: 14px;&quot;&gt;&lt;u style=&quot;&quot;&gt;Triggers:&lt;/u&gt;&lt;/font&gt;&lt;/i&gt;&lt;/b&gt;" style="text;whiteSpace=wrap;html=1;" vertex="1" parent="1">
          <mxGeometry x="550" y="375" width="80" height="40" as="geometry" />
        </mxCell>
        <mxCell id="ePLq6_zW1clj5C6yVysr-22" style="edgeStyle=orthogonalEdgeStyle;rounded=0;orthogonalLoop=1;jettySize=auto;html=1;exitX=1;exitY=0.5;exitDx=0;exitDy=0;entryX=0;entryY=0.5;entryDx=0;entryDy=0;" edge="1" parent="1" source="ePLq6_zW1clj5C6yVysr-17" target="ePLq6_zW1clj5C6yVysr-23">
          <mxGeometry relative="1" as="geometry">
            <mxPoint x="1310" y="350" as="targetPoint" />
            <Array as="points">
              <mxPoint x="1216" y="395" />
            </Array>
          </mxGeometry>
        </mxCell>
        <mxCell id="ePLq6_zW1clj5C6yVysr-17" value="" style="rounded=1;whiteSpace=wrap;html=1;" vertex="1" parent="1">
          <mxGeometry x="836" y="335" width="380" height="110" as="geometry" />
        </mxCell>
        <mxCell id="ePLq6_zW1clj5C6yVysr-19" value="&lt;b&gt;&lt;i&gt;Github Actions -&amp;nbsp;&lt;/i&gt;&lt;/b&gt;&lt;b&gt;&lt;i&gt;Build Test Job:&lt;/i&gt;&lt;/b&gt;" style="text;strokeColor=none;align=center;fillColor=none;html=1;verticalAlign=middle;whiteSpace=wrap;rounded=0;" vertex="1" parent="1">
          <mxGeometry x="810" y="380" width="250" height="20" as="geometry" />
        </mxCell>
        <mxCell id="ePLq6_zW1clj5C6yVysr-21" value="&lt;div style=&quot;&quot;&gt;&lt;b style=&quot;background-color: initial;&quot;&gt;&lt;i&gt;&lt;font color=&quot;#cc0000&quot;&gt;Step 1:&amp;nbsp; Checkout Code&lt;/font&gt;&lt;/i&gt;&lt;/b&gt;&lt;/div&gt;&lt;div style=&quot;&quot;&gt;&lt;b&gt;&lt;i&gt;&lt;font color=&quot;#cc0000&quot;&gt;Step 2: Setup Python&lt;/font&gt;&lt;/i&gt;&lt;/b&gt;&lt;/div&gt;&lt;div style=&quot;&quot;&gt;&lt;b&gt;&lt;i&gt;&lt;font color=&quot;#cc0000&quot;&gt;Step 3: Install Dependencies&lt;/font&gt;&lt;/i&gt;&lt;/b&gt;&lt;/div&gt;&lt;div style=&quot;&quot;&gt;&lt;b&gt;&lt;i&gt;&lt;font color=&quot;#cc0000&quot;&gt;Step 4: Run Test&lt;/font&gt;&lt;/i&gt;&lt;/b&gt;&lt;/div&gt;&lt;div style=&quot;&quot;&gt;&lt;b&gt;&lt;i&gt;&lt;font color=&quot;#cc0000&quot;&gt;Step 5: Notify Slack&lt;/font&gt;&lt;/i&gt;&lt;/b&gt;&lt;/div&gt;" style="text;strokeColor=none;align=right;fillColor=none;html=1;verticalAlign=middle;whiteSpace=wrap;rounded=0;" vertex="1" parent="1">
          <mxGeometry x="1020" y="375" width="186" height="30" as="geometry" />
        </mxCell>
        <mxCell id="ePLq6_zW1clj5C6yVysr-23" value="" style="rounded=1;whiteSpace=wrap;html=1;" vertex="1" parent="1">
          <mxGeometry x="1305" y="340" width="220" height="110" as="geometry" />
        </mxCell>
        <mxCell id="ePLq6_zW1clj5C6yVysr-24" value="" style="shape=image;verticalLabelPosition=bottom;labelBackgroundColor=default;verticalAlign=top;aspect=fixed;imageAspect=0;image=data:image/png,iVBORw0KGgoAAAANSUhEUgAABREAAAITCAYAAACQbVuaAAAACXBIWXMAABcRAAAXEQHKJvM/AAAgAElEQVR4nOzdT3ITWdY3YOUbNTdfsAC5ViD3iAgmuIYMCFxjBpgVlGsDlGEDZVaAGTBuEwwYlj0hglFbK2hrAUTjFeQX13VUCMtK27L+5L35PBF+q1riLaxUSpn5y3PPqeq67gEAAAAAzPJ/Mx4HAAAAALggRAQAAAAAGgkRAQAAAIBGQkQAAAAAoJEQEQAAAABoJEQEAAAAABoJEQEAAACARkJEAAAAAKCREBEAAAAAaCREBAAAAAAaCREBAAAAgEZCRAAAAACgkRARAAAAAGgkRAQAAAAAGgkRAQAAAIBGQkQAAAAAoJEQEQAAAABoJEQEAAAAABoJEQEAAACARkJEAAAAAKCREBEAAAAAaCREBAAAAAAaCREBAAAAgEZCRAAAAACgkRARAAAAAGgkRAQAAAAAGgkRAQAAAIBGQkQAAAAAoJEQEQAAAABoJEQEAAAAABoJEQEAAACARkJEAAAAAKCREBEAAAAAaCREBAAAAAAaCREBAAAAgEZCRAAAAACgkRARAAAAAGgkRAQAAAAAGgkRAQAAAIBGQkQAAAAAoJEQEQAAAABoJEQEAAAAABoJEQEAAACARkJEAAAAAKCREBEAAAAAaCREBAAAAAAaCREBAAAAgEZCRAAAAACgkRARAAAAAGgkRAQAAAAAGgkRAQAAAIBGQkQAAAAAoJEQEQAAAABoJEQEAAAAABoJEQEAAACARkJEAAAAAKCREBEAAAAAaCREBAAAAAAaCREBAAAAgEZCRAAAAACgkRARAAAAAGgkRAQAAAAAGgkRAQAAAIBGQkQAAAAAoJEQEQAAAABoJEQEAAAAABoJEQEAAACARkJEAAAAAKCREBEAAAAAaCREBAAAAAAaCREBAAAAgEZCRAAAAACgkRARAAAAAGgkRAQAAAAAGgkRAQAAAIBGQkQAAAAAoJEQEQAAAABoJEQEAAAAABoJEQEAAACARkJEAAAAAKCREBEAAAAAaCREBAAAAAAaCREBAAAAgEZCRAAAAACgkRARAAAAAGgkRAQAAAAAGgkRAQAAAIBGQkQAAAAAoJEQEQAAAABoJEQEAAAAABoJEQEAAACARkJEAAAAAKCREBEAAAAAaCREBAAAAAAaCREBAAAAgEZCRAAAAACgkRARAAAAAGgkRAQAAAAAGgkRAQAAAIBGQkQAAAAAoJEQEQAAAABoJEQEAAAAABoJEQEAAACARkJEAAAAAKCREBEAAAAAaCREBAAAAAAaCREBAAAAgEZCRAAAAACgkRARAAAAAGgkRAQAAAAAGgkRAQAAAIBGQkQAAAAAoJEQEQAAAABoJEQEAAAAABoJEQEAAACARkJEAAAAAKCREBEAAAAAaCREBAAAAAAaCREBAAAAgEZCRAAAAACgkRARAAAAAGgkRAQAAAAAGgkRAQAAAIBGQkQAAAAAoJEQEQAAAABoJEQEAAAAABoJEQEAAACARkJEAAAAAKCREBEAAAAAaPRT05PA8j34fL7Z6/U24y/69uXhxmnXN/vg08vJbXI2fPz6bOoPAQAAACtT1XVta8MKRFi4HT/p3x9d87cOU4DW6/WO00+J4WKEhTu9Xm/rFtvkNH6Oh49fdz5wBQAAgFUQIsISRXCYQrLdlJnd8W8a9Xq9o16vd5hzoBjB4V5sl/7UH7id8TY5UK0IAAAAyyNEhCWI8HC/1+s9X9L2PUn//S8PN46nnmmpwaeX2xEePl3mNhk+fp3NNgEAAIBcCBFhgVYQHl6WgrO9NlcmRuXhwRLDw8vSNtlVmQi0TVVV96J9Q06+1XWtdQRAy1RVtZ3be1LXtZv9kDkhIizIg8/nexEgbqxhm7758nBjb+rRNRt8erkf1Yfr2Cavho9f7089CrAmccH3V2bb/6Su6+wuVAFKV1VVdhfydV1XUw8CWREiwh09+HyeKksOV1hpN0saOrLbhqrEwaeX96JX4XWDUpYtbZPt4ePX39b8ewAIEQFYGCEisA7/Z6vD/GL58nELAsReDG45fvD5fK0Xe4NPL7diqvS6A8RebJOz+J0AAACAOQkRYU4PPp+nYOp0AVOXFyktG/7rwefz3XX85RHWHa9p+fIs6Xc5FiQCAADA/ISIMIcIENsWlk16u+ogsaUB4pggEQAAAO5AiAi3FD0Qj1ocII4dRNi5dC0PEMcEiQAAADAnISLcXgrL+hlst43okXhv6pkFiiEqhxmEqr34HQ/jdwYAAABuSIgIt/Dg8/l+y3ogXmcjqiaX6SCzbTKI0BMAAAC4ISEi3FAsDf4jw+316MHn872pRxdg8OnlTq/Xe77qF7QAT+N3BwAAAG5AiAg3l3P12v6ilzXHkuCDqSfyYVkzAAAA3JAQEW4gJh3ntGT3so0lBH57mfSGnGUjXgMAAABwDSEi3Mx+Advp+YPP55tTj84hKvhKCOD2VCMCAADA9YSIcI2oQsy54m7SooK/nUymMV9HNSIAAADcgBARrrdb0DZa1GspoTJzrKT3FwAAAJZCiAgNYvnvo9l/IjsbDz6f32kq8eDTy62CKjOTfrwmAAAAYAYhIjS7U+DWUnd9TSVW7qlGBAAAgAZCRGi23fhsnu4aIpa4TUp8TQAAALAwQkRoVmK4lJY032X57mDqkfwNTGkGAACA2YSIMEP0QyxhAvFV5goRB59ellyxpy8iAAAAzCBEhNk2Zz6Tv3lfW8lBmyXNAAAAMIMQEWZTdTfNkl8AAADoICEidNO8YWDJIaLlzAAAADCDEBG4jZKDNlWWAAAAMIMQEQAAAABoJEQEAAAAABoJEQEAAACARkJEAAAAAKCREBFmO575DAAAAECHCBFhtm8znwEAAADoECEizPDl4cZpr9c7v/pZAAAAgO4QIkIzS5oBAACAzhMiQjMhIgAAANB5QkRodtT4LAAAAEAHCBGhwZeHG2e9Xu9k9p8AAAAAKJ8QEa53aBsBAAAAXSZEhGt8ebiRQsRR858CAAAAKJcQEW5m33YCAAAAukqICDegGhEAAADoMiEi3NyubQUAAAB0kRARbujLw43jXq/3xvYCAAAAukaICLfw5eHGXq/XG9pmAAAAQJcIEeH2tnu93rntBgAAAHSFEBFu6cvDjW+CRAAAAKBLhIgwhy8PN04FiQAAAEBXCBFhThNB4sg2BAAAAEomRIQ7iCBxq9frndiOAAAAQKmEiHBHqUfil4cbqSLxd8ubAQAAgBIJEWFBvjzcOIiqxA+2KQAAAFASISIs0JeHG2dfHm7s9Hq9XyxxBgAAAEohRIQl+PJw4ziWOP/c6/XeGL4CAAAA5Own7x4sT6pM7PV6e+nnwefzrZjmnH42e73ewKYHAAAAciBEhBWJSc7p52D8Nz74fH4v+iiu2jfvOwAAAHBTQkRYozTZudfrHXsPAAAAgDbTExEAAAAAaCREBAAAAAAaCREBAAAAgEZCRAAAAACgkRARAAAAAGgkRAQAAAAAGgkRAQAAAIBGQkQAAAAAoJEQEQAAAABoJEQEAAAAABoJEQEAAACARj81PQmL9ODz+Wav19u0Ua/35eHGcdt/R1Zn8OnlVq/Xu3fpL/w2fPz61NvAslRVlfa5rRv+58/quj6behT4QVVVV32fT/pW17XvdrJWVdX2DX7/07quv009CkCrCRFZigefz9NJ8nb8pH/v29I39+Dzefqz6f+kC4kUKJ5+ebhxlMmvzx0MPr3cic/M+LOzMeu/Nvj0sndpPzkePn4tgOZaEwHh+ObOONjYnPf7uqqqyf85SsFi/HvaP7/F/z4TOFKyCAk3L32+bvW5mvgsjSY/N/FZOvX5YZ1m7OPp+DG47a91xb7+Lfbz8bHCOQ1Ay1R1XXtPWIioNNzr9Xo7QsOlSGFRChKP1hUoDj69TCdzj6aeKMPJ8PHrm9w5X7jBp5fp792Nz87M0PCGxvvJgUpFxqIqZBxMt+XGzsnEBeNxF8LFeB/+mnqi3U7qul7Ld2MOJj5b2ys8Pv5w80jQwrJUVbU5sX9vrukccDQO0O3vP6qqKrsL+bquq6kHgawIEbmzB5/P04nFfsHhUhulE6r9Lw83Dlf5uwkRF2vw6eVufHaWFeikkGZfdWL3RKXIzoqDjUUo+mJRiJi/CFV24qdNn60PESoeLTOMv2Wbg7ZQ/XxDl0LDRdzYXJaTuGF63OXl/0LE9bnhkv0sCeq5jhCRuUXl4UGv13tqK65NuuDeXVUPRSHiYkTl4cE8S3/mlE6291Qmli2Cw90Cq8GLuVgUIuZpIjjcXeH39l0M4xhztOiec5nuw6/qut6fepQLGe7fl40mAvROtf4RIq5HVVVp5d2fub+OGd7Vdb179VPwN9OZmcuDz+d7USkiQFyvFBT89eDz+dGDz+dNjdppgcGnl/cGn14exAXYKk/UU/D7n8Gnly6iCpMu/qqq2q+qKlXZ/KfX6/1WYDuJR3Gy/p/0OquqOqyqamfqT8GCpf2sqqoUSvw39sFcApb0e77t9Xr/i89LbpWDLFmqKE1BSFVVpxnu35elY97zXq/376qqvlVVdWCfZ1ni/KPUAPGDAJGbECJyKymoSoFVfHm2dYlDF6Uw9zQG2tBCMWH5NEKedflj8Onl6eDTS1PSM5eqgSbCjT861If28sXiYclLiliPqqp2I5j/dwE3S59HAH/ss0IcO1IrnP9lHhzOshHnWWmfP43PspvsLESE0yttJbVCw6hGhmsJEbmxCKiOVR+2Vrq4Pn7w+dwBoGWi9+FxS4KedMFwGqEmmYkLotOoZu36d/FGBCR/RYXifizLg1uLyqy0D32LKr4SK3r/EiZ200Qw/ld8b3bBuCL3LKoTHR+YW4TRR4UW0aRhXduLbn9BuYSI3MhEgFjaHcvSpAPbW0Fie0SA+LZlJx3pdzkWJOYjllWexb7ke3haPyoy/5sqNIUk3EYKWFLQEPtQ6assJsNEx4CCTQTjZ4UG4zc1rk78b1SvCxOZR1uKARZNgMitCRG51kSAaPlyPgSJLTARILaRIDED6SI/XezHssquXgDe1tOJ6kTfg8wUSzvPWnijZxUexZLPA8s9y5PCw4lg3LHju+fCRG4rWgCUegN3t8sTzpmPEJFGMayj1NLt0qUg0fCBNYkJzG0NEMcEiS0VFSQHMSyl1Inoy5YunN8KE7ksBhIdxdLOrgcsqULrVPVuGSaWLXehqvYuxmGiEJ1GMYm51BYAL7o20ZzFECJynSMn2Fk7fPD53J3WFYvBJbkclNNFxmGaHD31DGsRk//O1jyEpySTYaIbKx0XF4Sneor+oB/VuwdTz5CFqKo97viy5Xn8Fj0T9/L71Vm2uAFZ6iTmd3VdlzokhiUTIjLTg8/n+ypgsreRUZhVksPMKgDSEg0Xj2sW1YeHsXRZBcni9WOqs15wHRTVh8dxQejzdbXfYqKtm0qZmKha/8s5+9zS98Gfse87NnAh9oVSz40/1HVthQZzEyJypeiD+MdVz5GdQQTCrMDg08u9TE/knw8+vVSltSZxsnrcoamZ66QXXMdEBeqpkOVGBlGZJUxpOVXrCzdwbKD3fRJzqfMAhqkP4tSjcAtCRGZRlVSWPyxrXr5YxpxzYOtzvwaxXMb0+9UbL2MTnhcsqrRU997ORb9cQWI7RfXhkf16aX6z/3dX4QHiyCRmFkGIyJSY6utufXlUIy7ffuYnHf3Bp5f2kxWKCZpdnAzbFhuxxPlQ5UlZImg5VaU1N0FiC8UAHD09l29cleicqHsOCr2pe97r9XYEiCyCEJGrOGCW6blqxOWJKsQSlqLuGbKyGtH/UNuIdngeE2oFJgWI9/FMde+dCRJbJAItE8VX64/oo+u8qAPiM1ZqW5kUIJ5OPQpzECLygwefz7ednBRNQLw8pUz2SxeNlncuWQSI+h+2Sz8qT/QKylgsTy91Kdo6CBLXbGL5sptO6/FIn9DyxbG/1M/Yi7quj6cehTkJEbmslCCEq+08+HzubupylBQ8+B5YIgFi6wnRMxUXgfrELV7anpb8r8HE0C3Ll9drw02mchU+iflNXdeHU4/CHQgR+UeES05SyqbKbAliqnFJF62DwaeX7rgvgQAxC0dd3wA5iov7t13fDkuUloa7EF2h6H9o6Fa7vI1hTRSi8EEq7+q6VhjAwgkRmSRc6gbv8+KVuE3tJwsmQMzCuTv2+REgrsxTx4bViH36L1W1rfRbHM/JXOEB4tDKIpZFiMikbVujE7zPi1fiRZX9ZIHiglCA2H4uDDMjQFw5066XzD6dhedp+rsl/tk7LLTSd5TO401iZlmEiEwSGnTDxoPP55aqLkhMZS7xDuajqUeYSyxJc0GYB8vUMiJsoTRR4WafzsMghg4JEjMUy9JLbON1HpOYBYgsjRCRC9EP0VTm7hAiLk6x23Lw6aUbC3cUFxd67OXhpK7rs65vhFwIECmNlhdZEiRmKI4fpVZVpwrE06lHYYGEiIwJlbpls+sbYIFK/uw4Kb67Qz2tsmEpcyYKn6RJBwkQsyZIzEgcP0q9AfVCgMgqCBEZc+DrFqHx4pQcyNpP7qCqqj0T77NhoEomCm+ETwfFsUKAmDdBYgaqqtqM40eJXjmPYVWEiIwJC7rFSc7iqOpkSlxI7E89QVtZcp4BASKliWWVf3pjizBwLGmvifYyJR4/3tV17ZyTlREiAsDiHQg6smJpbB4OCp2kSQdVVbWjr2dxHsXSdNqn1EnMw7qud6cehSUSIgLAAsU0ZkvT8jHUQ6j9omLL54oiRF82YVOZnldVpSqsRQqexDxMg1SmHoUlEyICwGK5eMiLKsSWM0iFkliW3wl/RKUpa1bwJObzXq+3W9f1t6lnYMmEiMBtlNqMOHEQ5s6iCvGRLZmNcz2ssmDKOSURIHbDYdwAYU0Kn8S8bRUF6yJEZKzkcIhpArNpDsQsgirEvBy5i99usSxQH0SKEMsq7c/dsBFBomGGaxABYqnXty8EiKyTEBG6ad4Dz9nUI+UQJExzgnILVVVtqkLMjiWyLRYXgX90fTtQhljeWuKySmYbOM6sXgS3pVawv6rrWj9V1uonm5/ky8ON4wefz22L7pg3DCw5RBSYTSv5/V6G0qoQR9fsAyk07U89mo+RO/mt50KJIsRNJvtzN6VBK8eCn5U6KrTi911d11a8sHZCRCYNLbHojLkunIePXx8PPr2cerwQwoRLho9f2ya3k3MT9VGcdKf3/PS24Vr0gky2Ilzcip82VwGoDmkxy5gpjL6e3XYQQWLTjTkWoKqqw0JXhZzUdb079SisgRCRSadO2Dvh/MvDjbuEQyWGzcPh49eWM//oZOoRZorpf7ldII6HihzctSKvrutx36Ef+g9F9c04UGzb0BlVIS0V+81e17cDZaiqak+ri87biGPOdtc3xDLFudjzAl/aMPMb1RRGT0QmmVDZDXd9n0vcTwwWmub74HZyO7l7kyoG013tZS7pTVUXdV2n4SX7dV2nSYJVr9f7JfX0iZPidXlnoEqr7avaogQRiFt+SPIoAmWWIFZElDiJOd3w3XHOQpsIEZl0HF9UlE2IOE1F0jQh4u3kUl2Qli3/q67rvXWdkKaqxQgVU3Xiz2nKYK/X+zD1B5fLZ76l4kKwxEoSuskyZibtR7DMAsUQrhLPW9N1+bZl8LSNEJF/fHm48U1wULy0lPlO73H0yVtnBdGijfT+m3IyfPzaCcsNReiRw0Vi+txutWmYSFQqHtZ1nSo5/18EisteSj+aWH5N+6jaoggxjdkyZiZt6Me7WIVPYt4zAI42EiJymeqMsi3q/S3pBMjJ3DTfA7eTQxXiMO5mt3Y5TPrdIlDcjgrFV1E5uWj275aKQF7oQvYi2HB+wVWeTgwj4+5KncT8u4netJUQkR98ebhxbKBC0RZ1QntUyNL3c4HClFSZaZvcTg4XA7s59dOJCsW05Dkt+/p1wcud7d/tpQqRUqTed33vJjMImBeg4EnMqW+zfYTWEiJyFSfxZXr35eHGQpaoxiTjEg5uB6YyT/H5v72tlv9+r3JeDhODWXaiOvHdHW9gfNBbqJ1UIV7pPG7sTv7oXd1yUYVogMbfRlfsw113Yv+4uxhSU2L/3JM09G7qUWiRn7wZXJaqER98Pj9xMl+U80WfsAwfv94ffHq5m/Gd9pE7wVOGqhBvJxqkt70PTxHvaYR/uxMX6HtzbHv7d3t1+QbGMIbbpbA/7eenN6kcjuD1XtzI2I5/GuKxfgcdfB9OJvbhbzfpOxvHz82JfXer8OrNdN65b4nq3UW/0T9zfx1XSMeCnemHoV2EiMyyGycCTkbLsB+DcxYt7Sd/ZbqF9lQhTnFn/PbaPmVxWFrlXYQracLlwS3DxDRQxfCwForJml26cXkebUFS0HI0b6uBiaDmn/06tuV2HJ9L7BPWahGMdWG6+Cj2u6N5B1XFseksPgcXYvvtFLb/nkd46Mb1AsR3XIlB7Hnbe1fDmOXMXCmWvVrWWIaTLw83lnLiMnz8Op34vZl6ov3eDR+/Fib86E28n9xO25cyF/uexiCW/QhyX91gmafqj/bqyg2MYUwg30zL1WKQ0EIvGFPrghRW1HW9FS0Afl/SgCKuVvq5c2op8UvqV1vX9d6iJ91HP9zJ/XdZA7ZW5VV83gWICxArEY4KLHIRIJIVISIzRfD0btbzZOF8BWXx+3FhlIuhirspaRmzbTKfey3//Yo/IZ0IE7euOWYJEVsoLgpLr9w6ieBlaxnB4SwTgUwK2n/Rj265Cq5CPI8w7OcIv1dyc+rSgK0XmYWJ72J77QuGFuq40CXvuzn3rqZ7hIhcZy+zgIjvLu5qLWkZ8z9iSfBOJs3e0++4axnzD0aZTBduq7YvZ27777cwccG5OyMsOTFQpbVKbiA/Dg+3VxW8zJL+/vR7zPh8sBgl3ox7F5V0++v8Do3wfRwmtvl8c/yZ33XMWayYxFxii4YXWq2QGyEijSKA2hYkZmn3y8ONldzVGj5+fRb7SZtP7C5C1eHj1+70fXdRqSpUvZO2h3SdC4gnwpLJi01ViO1VYvCS9rvf2xAeXnYpTLTMeUGiorakQDyd9/8rwrDWnCPEUJLNFrbSSZ+lX9v4mS9BwZOY3xm0Q46EiFxLkJiddPHy4svDjZXe1Ypwrq1BogBxmm3SDf2Y4No5ExebTtJbKvbN0pamneTQAy3CxHE/Ue5ut6A+ba9i6X0rzw+ihcVeS4Lw8Q2DTdVky1HwJOYPsXoCsiNE5EYEidkYL2FeywXzRJDYpuqGkbBsSvocb9kmndHZIVlxsekkvb1Ke2/G1YfZVHdHP9F/Ob+7sxIqas+j+jCLY0ZU/KVeuB+mnlwNQ1OWrOBJzMPCW3lQOCEiN5aCxC8PN7YyncbbBRfB0KqWMM8SwdRWS3ounQjLpnyIUFWvnu54VFWVafu00bIHf63KefRByzJMiIqz7WsGEzFDIRW1wwjEsjpfihtFOyuuqDU0ZQVMYob2+sl7w219ebix9+Dz+XHcGSrtiz1Xr7483GhNSBA99rYHn17uRRXUqveTdIDeHz5+7e7wd7ZJt/1RVdWZZb20RSxRK+EcYnxBmPXNqrig3a2q6rTQpYPLlHtFUQrF9nIONVKgl45xvV7v7dSTi5NuTO/rebh8ESCWOIlZgEgRVCIyl+i3p5fO+qUTmp/bFCBOisBqa8XVDR+i+lBY9t3FdEXbpPPexnRDaIMSqhCLCBAnRTVl2yfgtk3O+/K7tg1PmVfcJHuxhP/0qC1T1jvkoNBJzLslHS/oLiEic4vlzSm8+jlCCiecq5PCw1++PNxI/Q9bvSw1LZsdPn69O7GfLEsKD38ZPn69Y6nuPy6W3KTtbwIz4XmqNOrqsBVaJfcQsbgAcSzCmLYOSmuVqqpyHqjyrrSesQsOEi8GFcbQFOHhikT7lRInMb8wfIdSWM7MnUWItfvg8/m9uCjYK/Tu0bqNojfIQduDw6tEsLc7+PRyP/aT3QXsJ8PYJoeCw38Mo9XAoeBwJdKFxaPMfuf0ufurqqoPsYTNZ4eVimb5OS9lLjZAHEuvLW42HGtd0yjXMHxY6tCpFCRWVdW7w9Lm86iEO7DsdLUilP+jwJf2RjsZSiJEZGFigvNFeBGB4nb8bMWPk9DbSdWG6eI+XaQc5RgcXiXCvouTs8Gnl5uX9pGm/eQ8tsVZXNQcCw7/2SbjH9uE23iafiJMPFBpwQrlXoW404UlaREk7i25z1zucqzqHmb6e99YBInbc1S0vYu+h86lVixuLpXYdidV/JYwvR3+UdV1bWsAwBzirnkpF9ijOIE/cgG1HHFR+1dmv/ZJ6gU29egdVFWVYwXv2Ks0xGHq0YJFkJjzsJWlvGcxHOjfU0+0W/FVtJNiUNBNVr2cRGV+VtulqqrsLuTruq4uPxaDVM4aCglyNTRIhRLpiQgA8yspbOtHUPDfqqqOUkAaJ/awaLkGiCddCxB734etrHJAWi5yrObb79hgh51rentODk0x8GINJiYxlxYgjgSIlEqICADzK/Wi42lUWP4vBrHsxVIjuJOMh/qcRy/frtqLi2K+y21Z/kkEwp0RVfVXfW4NTWmPEicxn0fbCwEiRRIiAsCc4gSxqcqhBIOoUPxPVVVnVVWlXlM7qhSZU64hYqf7pMV33VVhTCdVVbUZ1du56GwIHhNxT+J/pu3wqtfrbRp0sX4FT2LuRN9cukuICAB306UTxX6c8P87qhSP00WAKkVuIcd9Zdi1Cq6rRMXWmyue6qLcwvCDjve63Y0l+VupJYEKsfUreBLzC9WtlE6ICAB30+WTxUdxEZCqFL9FL8W9qNKBq+RYiWiy5ndHU490U0778aiLvTwnpQC1rutdQ8PaoeBJzG9UuNIFQkQAuBsX1X/biF6K4+Eslj7zg9gPcmuef6KqhCvkVFHb6QCRdombjCUOUnlX17UbTnSCEBEA7iD63pTeF3Eel5c+n1r63Hk5vvcCGK6SyyCIkcooWuaowABxqGKdLhEiArz3iC4AACAASURBVMDdqUa83uDS0mdVit2T21LmkSpELstswrgAkbYpbRJzChC39dmkS4SIAHB3QsTb2bhUpZh6Ke4KFIuX2/urCpGr5FRR2/mBQLBEF1PPBYh0jRARAO6orusUIo5sx7mlXopvBYrFy205s5sDXCWXwVEfhBuwVNvR0gY6RYgIAIth2dhiTAaKF0ueS3hRXMhparcAhllyCcOF4LA8LwSIdJUQEQAW48CAlYW7WPIck54PYqoj+epn9JsLYJgll+8h+zAsxysDi+iyn7z7rMKo/2xznSdd/dH71jVGv2abfOuP3nfu7tbXj4OmbcK0s/tPhmdTj7IWqWopBV0xPITFSuHTb+mnqqoPKbA18CIvGS5Pt38xSw5h+IlKWliKd3Vd65dLpwkRWYpR/9lOTGFMSz4etWArV1OPrNCo/+xebI8bb5NR/1kvJn6dxsXMUX/0vpgTwq8fB2mbTO4npU1rW4mvHy822zD2kYuf+0+GLhzWJ4WIezE4hOVIy52fVlWVelDuqwbIRk79ENNUZjdomJJRGC4Eh8Ub1nW9a7vSdUJEFmbUf5bCoN0IhlxA/7hNnk89eTOD+En//29H/Wcnqe9af/Q+24vmrx8HO7FNnk49ybzG+8lvsY1Tpdbh/SdDS5lWLKoR0x3qPzv1wtcjVQO9je0tTGSRBDDMkksYbh+GxRpG4QN0nhCRO4uqw72WVBy2wqj/LIVk+0tY8pK28aNR/9lBVDwd5FKd+PXjYFnbhGkXlVpfPw4uKrXuPxkKV1aoruvUu29Xde3KCBPzkNNyZlWI5M7AB1ic1O96V4sA+JvBKsxt1H+2Neo/S3c6/y1A/FuqPBz1n53GZNFlhmUb0XftLALL1vr6cbD99ePgbAXbhGkX4Ura/ul9mHqWZbLcZfXGYeJxVVX29/bJaTmzKi5mySIMF3bAwqQAcdskZvhOiMhcRv1nqeLjP8LDv6Weh1Ed+NeKq482YpnzcQxqaY3U8/Drx8FRbBPh4Xql7f/X14+Dg+hFyZLFyebvtvNapOPSXzHN2f7OPAQwzJJDGH4y9Qgwrz0BIvxIiMitRFh2avrod6kiM6oWfpt6cnXSRfNp9GBcu68fB1uxlEbfw3ZJ++hxvD8sWVrWnKb42c5rk/b3s6qqdjr6+pmTC0YA0s1gLVJgmhCRG4uw7Eyfr+8mAsQ2bJNUlfjXupc3R+/DY9WHrTWIINFyz9XYi2bcrEf6Xvx3VVWHqhKBjhCCw92lZcwCRLiCEJEbmQjLTF0OEdb9p4Xb5O26gsQIEN/aT1pvI5Y369u3ZNGXaluQuHZpwn3qlagKFyid5fhwdxtCRLiaEJFrCRCnxbLht1NPtMfKg8SJAJF8vBUkLp8gsTUGESRa3kwT/eQASJ6mlQy2BPxIiEijGNYhQJwQoerR1BPts7IgMXrsCRDzdKBH4vIJEltjvLxZeA4AXOe5cwb4kRCR6xwJEL9Lg2Uy2yYHEXouTUz7PV7vy+QO0r58ZGrz8k0EiR9Kf60ZeFtV1X7XNwJXenTVgwB01ltBInwnRGSmUf/ZgSEqUw4zGxhy0c8jws9lETTnr6/vy2qkILGu67Sc9lUXXm/L/VFV1UHXNwJQHDcFYfEO9FWGvwkRuVL0/Pvtque6atR/li78n2b48lMQvJSKm68fB3uqNorx9OvHgV5xK1LXdfpM/hrT/1if31QXAIURdMDibURf5U3blq4TIjKL6owJUcmX8zb5LfpbLkwsf7UcsCyHljWvTl3XqYp30/LmtbNMiR+oNgHgChctgKqqcq5MpwkRmRLDOCxj/tFeZsuYr7Lo5ar7ljEXZyP2dVZkYnlzqkoc2e5rY5nS8n3L6Hd1gcgspzMebxMrRGB5BnrB03VCRK6iumxCVCGWEKw8WtSQlahWs9y9THuqEVcvqhK3oleiJc6rp7pg+XIIX8a2px6Bv2URhltyCUs1qKpKL3E6S4jID6LvX+4Vd4u2U1DF3aLCUNVq5Ur7uqWdaxBVifsRJr7r3AZYv75WHgQBDLlTWQ3L9byqKoU3dJIQkcuEB9NKCsyeL2hSs/2kbELiNarr+qyu6/QZ+znCRJWJq5MuClShYR9gllwqaoWIsHx/6KlMFwkR+UeESzlOH16aWP5bWn/IO03gjQm+qlXL1v/6ceACZM0mwsTNWOasZ+JqWKK0BHVd59RDqm85KFdJFeNXPNxGdzrXA27srZuPdI0QkUlOOKaVeFC46/vsQNkN7qy2xHiZc13XmzGAxTTn5epbooRjHQ2Gs59qjYEer7RUiecwR4az0SVCRCYJEaeVuE3uWm3qwqobvM8tlAawxDTntNT590wuZnO05wJ8KU4y+l2dEzGLakSY326B5y6Gs9EpQkQmuYMy7dHUIwUY9Z/NFRDF1N7SlndzNe9zi8VS54O6rrcEikuxoTdo5z11QcgMuSzNFyLSOtESYLfAfs+p1dOx4wZdIETkQvRD1OduQvRDLNW8r03Q3CFfPw5UI2bgikDxRSwXMpDlboSIi5dTX8Setg7McHb1w63zVG9P2qiu69NCv18H+irTBUJExoRD00q+kzTva7OfdIuLj8xEoHiYljzXdZ0+57/EUJaclpG2xYapiwuXS/gyJkjmKjntx77DaKXUniXOT0qTwntBIkUTIjKm9HpayVVY8742+0m3CBEzlybixlCW7bquK6HirVkOuFi5hYhpyI59gB9kNmlcf1daK52f9Hq9dwW+Q8/dhKRkQkTGVJhxE05EIWMzQsXfY/nzyHs7RV+8BcosfBlTjchVculBu+FmCC23V2hP57eCREolRARuQ9gMBYlQ8SCWP29GT8Vfe73eG9WK/3ABvli5XSw+qqpKf1guyykQP3AzhLaKQSs7hfZxTp89104UR4gIAFyInopHdV3vqVb8hwBpsU4z/J31t/pOGPW3nPbjzk+bT0FO6lNn0Ew7pXOPQm/YbcTEZvsdRREi0gWW6AHMaUa14ovoY9SF71eViIuVY4iYeiPuTz3aMVHNdtD17RByW5r/R8eDjLTfPu/1ev+tqkplZgtFu4vfC3xpKUg8ss9REiEiXZBbI/c2y7GfFbBAExOgd68IFUtcjrShimChcj2O7NkPeilI7U892kFROZXbTZROVtRWVZWqMB9NPPRbujZwY6B90g3LQgetDFKQOPUoZEqIyJhwCIBbuxQq3ovlz28KCxT1NFqQuq5PM903Nrp8ERhTqn+beqLbctsfHkWg1hkR/F8VFm5EdeaZ4Rftks4lCh20kj5/WmNQBCEiXZDj0qm2UtXZLT473Fosf96LQPHX6KWYOyHiYuV643KQlkJOPVq4GAzg4ndajvvxn10Z9BDLR48iMJylH1N0jw1QapXtQlc2PFcBSwmEiFzoj96XXIko+Foc27JbvN/cSQxp2YklzzkvURIiLlbOFX2/dalyKYKYw2uCmE5K32+ZBh3HHenPdhDLSG8iLXf+K8LErrctWLuY2FxqqPuH6ldyJ0RkUoml4z3VVItz/8nQsvfuOL//ZOizw0LEkud00vyvTI81GqIvVu7HkoMuVHNF0HR8iyCmi3IMxDdKDxJj2fbzqSeu9yiGrxwahLFe0friRaEv721XKoIpkxCRSUUGRIVXWa7DSfdecif53LBw6aKgruutDKsSVaYsUAylyPnG5TiEKfYiUIB4Y7lW1RY76CGqvP6ceuJ2no+HrwgT1yf1Wy500Eqv9GMIZRMiMqnE0KCEXlxtY7pYNwgRWZqoSvw9oy1sIu3i5f4dU2yQKEC8uYyXNPdKHPQQAeLbqSfmczF8Ja1osvx0feJ8ocQChothXUJqciRE5B/90fucT4RmEXgtnm3aDd5nlqqu6wM3ejqthPCiuCAxXsuZAPFWcj5epkEPpyUEGQsOECeNh6+cGr6yNqm38qjA19XvUI9SCiJE5LKSgoNzQcji3X8yzH0ZGtc7ifcZlm230AmMXCP6XZVwUTgOErOvVIrX8B9DVG4t94ndg9iHs23bEBWVywgQJw0MX1mPGLSyU+j5wqCA7xA6RojIZSV9iR31R++/TT3KIjjYlc37uyDpQiOqF/S9uUJcGLjZ012lLKXciEqlLL87UxVMVVVHKwhhihSBeO43VwexbDerSrvYd4/nHKIyL8NX1iA+Z3uFvrznpbUWoGxCRH7QH70/LajvxP7UIyzE/SfDw0KXFdDrje4/GQp1Fmc3Ls7+E9MimWZ/667SLpp+i5sG2VQpVVW1E8uXn049yW2UcPNtIyrtsngtE/vuo6knV8PwlRWLQStvCn15z/XeJBdCRK5SQvj2rj96bznmcglpy+R9XazJ4PBPy6CupGK8o2JKc2kN88cVXa3+Lo0q6VTB9W/LlxeipL7iKQw/a2tV4kTlbBv2XcNXVqyu672C+ym/jXAcWk2IyJT+6P1x5uP0zwUhyxfViHojluUk3lcWIC4oLl/gjJdB+Y6Cv5X4nXMRLLQxiInwMG3z/66xgqs40ZqhpFYg/ahKPGrLja8ID/dbWjlr+Mpq7RZ8DXKoBQ5tJ0Rklr2M76juq0JcGcszy+L9XKym7TkOGNxxzoPhL0sSy9NK3b79iUEMa/2sp2BjIjxcZf+4Limxn/DTif5/awkTIzxMx9PTqPprc+Xs5PAVQdCSRGhf6mC2jdwHHVE+ISJXioEkOZbln/RH7w2FWJH7T4apavVVJ15s+V7dfzI87fpGWJSoRBhc859LAcO/42Kjy5ULObx2n43lKv24/Sg+6+nGwd6q+qdF1WH6+9L++5fwcLki2Mh5JU+T5xEmHq0qEE8hXPRnTIUBf8YxMxePohfy2sLX0sWglVKXkKcg8UivTdpKiMhM/dH7o8xOhs5j/D8rdP/JcL/AnlZd8yHeRxbnNie2j6JyoasXGzlcBOjbuFxdufnXjzDkfxHG7C76Mx/By34Eh/+Nv++6GxosTunH0qcRiH+LY9bOIoOOS/vvf1J/xsx7dj4f90gVCC1eXddHBRczDAyeo61+8s7QpD96vzvqP9vMoG9OChC3o4KS1Uvh7bELlSwNC76TuxYRCsxT8fM8pvOlmzeHdV0fT/2JwkQFZg7VJSoRlyhVcMV+36VKuafjvm5VVY1iHzuNY+m3qLKZKb5nJn+29ThcvzQsqKqqV7HstmQb42NW7+/9cRj77lnsx2cxOGmm+P5PwdpW7L9bhQ75GQ9fSVXBe9HCgQWp63r/DuddbfcohfV1XTtPp1WEiNxEDgHRbn/0vvGEm+W5/2T47evHwW7sJ6Y85iOd9G+n96/rG2LB7nqyNw4TU4XvQdxpL05UZeRyMdV4McxC7Hd4uW0/fp6Ow6eqqiafH0U1rBt1eTiInrhdOh8aXN4/L+3DJwWHhDe1EcNX0nfdbhduFK7QXuxfJX5HpvPBFMpbMURrWM7MtaK6b7ulU7BSBeKLWHrNGkU/vW0DCLIhQFyepoEqtzHZR22/wKXOBxn1uHKTasmiaqnUfnJ31Rcg5qPASc2L8MhN5n/0O7DsfaXiM7dT8DVIGsanGpHWECJyIxNB4ocWbbHxEmbLAloigsTNlgbOfCdAXJI4yVv0hVI/qpPGTe2zP5GMKbHZVJ1dt7SUhXFhTRGiamjk3WQG33ULFjeiSu6N/9bEb9pCiMiNpSCxP3q/05IGtikE2bKEuX0imNpWUdJab+4/GW4JEJdmUVWIszyNE8l/mtrP+HOtFNNijzNbtmpw1IqoRqQwKoe4yjtLmZcjtuvvJb62cCxIpA2EiNxaf/Q+3T371xqrzV71R+9TgKhHVUulgOr+k2E6ef7V8ubWSBURv95/Mlx2yNVZ0SR+VUsOx03t03LnOioU99q85Dn9frEsOLfhDy72VmvPcYMSRKDRphU8rN/5Cm42dlpd1wcF34xK535HJn2zbkJE5pIqAFOQF1WJqzrZTydiP0eISQbuPxkexfLmN96vtTmPz+lWvB8szzqrTlKF4p+x5PksqhT31n3HOp3oxu9xFr9fjj2xfG5WSD85CrMrFGfCXnzHsVx7BbdW6kdFoiCRtanqurb1uZNR/9m9+LLeXVKT/HQ36bA/er/SapBR/9n+eEpigU76o/fbq3xZXz8ONqMHzI7m2itxHhfih/efDFXtLllUAP63xb/iSVQBnsU/T5d1IRPbYjs+60+n/kBeRnVdL6y6M6pV/5p6ot1O6rpe6fEittVZRoN3aLdX65xsGn1s3049Qdcs/Ls0rUSYerDl6rquVvEbRsh2VvA1R1oWr2UCa/GTzc5dxdCVdHK2P+o/24kwcfuOX9rp7lFqvH9k2XIZIsja/fpxcC/ChRIChjb6EJVTR/oerlTbT+QeXV5GXFUX5/Hjfn/jmzTfLk8ivqp3U4RhY6na8V58728VdsKuCnF9djMMXGFKXdfj/rXOebrrvPChH62TbpTGucp/Cn2Jz9N5nCCRdRAislD90fuj8UXXqP9se+Ki8l7DxeUwLlyP4+L1OIJJChTBVgqIDyNQ3Lq0n+TWL22dTiZCn+P7T4ZTYQ8rk2uPo0eX/jklwsauMv1/TVJ4XVXVB8ELhdgtvCqKZruWMa9eXdenVVW9KLgSOAWJx+lGxdQzsERCRJYmlh8LNZgpAkX7CVmLpWouDMszTBcgXd8IayZ4oQhRFbWjuraT3tR1rap9TaISeDuG0ZXobVVV3+xjrJLBKgBwNyYtlslwjzWLyh1LtShCtIZ45d3slGG0fGKNYslvqYNWksN1D9KjW4SIADCnuLs9sP2Kc64fYjtEdcWHrm8HyhADXk68nZ1w0QfRMubWSOdro0Jf20ZMbF7YIDhoIkQEgPmpkirTgQu/Vtkt+OKP7tkpvCqKv6UA0XDIlohj+k6EuyVKQeJRTKWGpRIiAsAc4o5vqT12uuzcUuZ2mbj4g1L2592Cwwx6vRexfJ0WiT7HJbegGVhFwSoIEQFgPqoQy7SvCrF94uLv965vB8oQ+7NgvEzvTMttr3hv3hT8Eh9VVWX/Y6mEiAAwHwNVyjOq61oVYkvFe/Ou69uBMkSl2gtvZ1HexRAPWqyu673Ce5M+r6rKQB+WRogIALdUVdVu9J+hLC7+2m9PPzlKEVVRgsQyDAWIWSm9N+kfca4KCydEBIDbU4VYnjd6WLVfLDUvecomHSNILMIwvpfIREd6k76tqmpr6lG4IyEiANxCVVXb0byacqRAytKfTHRgyiYdI0jM2kWAqJdufqI3aenVeseCRBZNiAgAt2N5SHl2XADmJS7+tgWJlEKQmCUBYubquk7TjF8V/BJT653DqqruTT0DcxIiAsANVVW1mRpW215FeRGBFJkRJFIaQWJW3gkQy1DXdVqJ8KHglziIikRBIgshRASAm1OFWJZ3cdFOpiJI3BMkrsybjrzOtZkIEu3T7XUxhVmAWJTdwgetpCDxYOpRmMNPNhpwU18/DtIBdnMNG2w87OD0/pOhEzbW6Swu7Exmzt87kzTLkEKXqqpO41jhs7k8qfIqLf37rdQX2Bb26Vb7va5rYUxhUiBcVVXqtXta8GfueVVV3+q6NhyQOxEiAreRLrgfrWGL/TH+l68fB+dxUp1+ju4/GZ5N/WlYkriwS/ve4Zo+CyzG0ITtsqSKxBh6JHRZjvFnRoP+FYl9eiuCW8O81i+df+6pXi9XXddnEST+VfDL/C3doLAfcxeWMwO5SReHT3u93p+9Xu+/Xz8OTr9+HOx9/TjQ54OVSCeZdV2nsOJ3y82ypBF+oSZ6JI66vi0W7NzwofVIx5vYp9918fW3yCiOG4KXwtV1fRzndyV7G2EpzEWICORuEIHi2dePg31hIqsSy5m2Cm/GXZoTAWLZIkjcKry31Sqdx2dG1f+apO+raL1QerDRVukYv2UAV3fE+V3pwf1hVDrDrQkRgVJsxLLnFCZapshKRFViupv7i+qn1ks9EAWIHRDvseqtuxsHiMKTFohg418C8pU5j/6HqnC7aa/wz9qGic3MS4gIlCYdFP/8+nFw/PXjYB1DYOigtPylrutNS5xb65UhKt2ieuvOBIgtNLFk35Ts5Rq3vTBApaMmbkaVfE4nSGQuQkSgVGnoReqXqOcHKxMXHClMfCVMbIX0Hvxa1/V+1zdEV01Ub6kUvrmhALG9IiDfUwG/NOmmk+XLTAaJJRvE8Ca4MSEiULJ0h+3fXz8OVCCxMnGBty9MXLth9LFyctxxE30SVW9d70SAmIcYALEVxxnuLu37P7vpxKT4LnxR+EZ5VFWVoUHcmBAR6IK3gkRWTZi4VuNKEsMguKB660Ze6Rual4njzM8RgnF76fvgRez7jhlMiancpffYfV5VlZ7y3IgQEegKQSJrMb7Iq+v6XtzNFmAsj0oSGk1Ub6lK/C5V7f7L5yZfMeQrLbv81THmxs7jBt9WhEQwU/TYLX2o0Z9VVblW4lpCRKBLBImsVbpQiQEsv5gcu1AqSbixiarEf6ne0v+tJKl9Qxxj3LBqlm4ibMYNPpW33NR2Bz5Xb6uq2pp6FCYIEYGuOfj6ceDgyFrFNOcUaP+/mB5b+t3tZVFJwtxScBbVW11c4vxB1W65Jm5YCRO/O4/wMO33e8JDbiv2mZ0OtKc5FiTSRIgIdE0atiJsoBWiIuogVQJFT6s3LvhuZBweqiThziLU70rgkiovf6nrekfVbvkuhYldrbodTRwv9uz33EVUbZfeO/DiWqmqqntTz9B5PSEi0FGDrx8Hqi9olehptRcXfP9SoXil8bLle8JDFm0icPm1wMDlQ4SH29EXkg6JfXs7ji3vOjLo6ySOF242sVCx8qH0vrqDqEgUJDJFiAh01R9fPw42vfu0USyznKxQfNGhC7/LzuO1/xIXgyqJWaroK1dC4DK5fHNHeEgcW1IrjXF14ofCNsq46vDnCMwdL1iK6KtbenVvChIPph6l837q+gYAOi1VIxq0QqvF0qvD8TL86FOzHT/p3/sFvoMp/DhKPynQmXoWViCWrV0cI2JiZeqF9TSDbf8hPjsCFK4UVXmHE0sWdzLavy9LFfspID80IIgVS5+Z00LPw8aeV1U1HkYGF4SIQJc9T8ua7z8Z6o9DNuIi6XR8d7iqqs0IE7cmgsWNDN/R8YXgccHB4WkM8ciJJYDfl69NBi7b8c82fNbGoftxhIfLfM9y3Icd4xtcEShuT+zfbQxHzsfHitjfu/z+5vZZLEr67FRVtR2VvSVzHsAPhIhA16lGJGtxAXUWIcKFuBAcB4ubE/9sywXheYQR4wvB0y70q4rXaElpxiYDl976KoNHk5+fVVZf2YfLFu/vUfzsTYSK67xJNZzY309VG36nRcH6TZyDQWcIEYGu2+n6BqA8Exf6UxcYUbmYfsZBYy/+OW6efS/64NzVMO5en1366URgSDdcURk8GeCPA5jk0RwbZNxv6zg+S6c+P6zSpVDxwhX7+Pif896oGt9U6sU/x8evbwJDgPYRIgJdt/H142Dn/pOhvmt0wqW75jfe72PJzkwqIqA5wB+bCPIvO+v40kwycJN9vNe8nzteAGRMiAjwdzWiEBEauOiDxbD8jS6wnwOU6f+8rwCWNAMAAEATISLA30uar1xyAwAAAAgRAca2bAkAAAC4mhAR4G9CRAAAAJhBiAgAAAAANBIiAvxt23YAAACAqwkRAQAAAIBGQkQAAAAAoJEQEQAAAABoJEQEbuO44K11NvUIAAAAcEGICLN9m/lM/gRm02wTAAAAmEGICLOdznwmf/MGZiUHbSWHxgAAAHAnQkSYreQQcd7XZpsAAABABwkRYYb+6H2qTBtd/Wz25grM7j8ZFhu03X8yLLnfIwAAANyJEBGalRgsjfqj93dZlnwy9Uj+SnxNAAAAsDBCRGhWYoh4NPXIav//26jE1wQAAAALI0SEZgKzabYJAAAAdIwQERpEX8R3s/9EdtJS5jtVV95/MjwrbPnvMF4TAAAAMIMQEa53WNA2WtRrKWmbHEw9AgAAAPygquvaFoFrjPrPUvXeo+Y/1XrnvV5vM6or7+zrx0Gq3utnvk1G958MN6ceBQAAAH6gEhFuZr+A7XSwqAAxlLBNSngNAAAAsHRCRLiB6CP4IeNtNVr0st37T4aHmfdGHMZrAAAAAK4hRISb24slwTnaXXAV4tje1CP52LXvAwAAwM0IEeGG+qP3Z5mGZm/uOpF5lvtPhqe9Xu/3GU+32av43QEAAIAbECLCLfRH79Py13cZbbPhsvv+3X8yPMhsqffJ/SdDvRABAADgFoSIcEv90fvdCOfaLi293l7SMubLctkm6XfcmXoUAAAAaCREhPlstzw0W2WAmKoRv2WwTdJwme34XQEAAIBbECLCHCKca2toNg4QV9rzr+VBYvqdtgSIAAAAMB8hIsxpIkhsU4/Ei7Bs1QHi2ESQeDL15PoMVSACAADA3VR1XduEcEej/rM0tfnPNW/HFGburWoJ83W+fhykgSu/XfPHlu3N/SfDHCdqAwAAQKsIEWFBRv1nW71eL01vHqx4m6bly7v90fujqWfW7OvHwXZsk/6Kf5PU/3D3/pPh8dQzAAAAwK0JEWHBoipxv9frbaxg277q9XoHbak+nOXrx0HaHnsr2CYpUE0VkAeWLwMAAMDiCBFhCUb9Z/dSJVwEZ4uuwhsHZYf90fuzqWdb6uvHwb3YHrtL3CbCQwAAAFgCISIs2aj/bDuCs+07hGcpJEtLc4/6o/eHU89m5uvHwU6v1xv/zFudmLZJWsJ9dP/JsHVLuQEAAKAkQkRYoeibOPmTPLr0G6RpwqmaLlUZpinLp/3R+2J7+339ONiKgHWzN3ubjKc9n8Z2Ob7/ZLiWCdQAAADQRUJEAAAAAKDR/zU9CQAAAAAgRAQAAAAAGgkRAQAAAIBGQkQAAAAAoJEQEQAAAABoJEQEAAAAABoJEQEAAACARkJEAAAAAKCREBEAAAAAaCREBAAAAAAaCREBAAAAgEZCRAAAAACgFYxAugAAA9tJREFUkRARAAAAAGgkRAQAAAAAGgkRAQAAAIBGQkQAAAAAoJEQEQAAAABoJEQEAAAAABoJEQEAAACARkJEAAAAAKCREBEAAAAAaCREBAAAAAAaCREBAAAAgEZCRAAAAACgkRARAAAAAGgkRAQAAAAAGgkRAQAAAIBGQkQAAAAAoJEQEQAAAABoJEQEAAAAABoJEQEAAACARkJEAAAAAKCREBEAAAAAaCREBAAAAAAaCREBAAAAgEZCRAAAAACgkRARAAAAAGgkRAQAAAAAGgkRAQAAAIBGQkQAAAAAoJEQEQAAAABoJEQEAAAAABoJEQEAAACARkJEAAAAAKCREBEAAAAAaCREBAAAAAAaCREBAAAAgEZCRAAAAACgkRARAAAAAGgkRAQAAAAAGgkRAQAAAIBGQkQAAAAAoJEQEQAAAABoJEQEAAAAABoJEQEAAACARkJEAAAAAKCREBEAAAAAaCREBAAAAAAaCREBAAAAgEZCRAAAAACgkRARAAAAAGgkRAQAAAAAGgkRAQAAAIBGQkQAAAAAoJEQEQAAAABoJEQEAAAAABoJEQEAAACARkJEAAAAAKCREBEAAAAAaCREBAAAAAAaCREBAAAAgEZCRAAAAACgkRARAAAAAGgkRAQAAAAAGgkRAQAAAIBGQkQAAAAAoJEQEQAAAABoJEQEAAAAABoJEQEAAACARkJEAAAAAKCREBEAAAAAaCREBAAAAAAaCREBAAAAgEZCRAAAAACgkRARAAAAAGgkRAQAAAAAGgkRAQAAAIBGQkQAAAAAoJEQEQAAAABoJEQEAAAAABoJEQEAAACARkJEAAAAAKCREBEAAAAAaCREBAAAAAAaCREBAAAAgEZCRAAAAACgkRARAAAAAGgkRAQAAAAAGgkRAQAAAIBGQkQAAAAAoJEQEQAAAABoJEQEAAAAABoJEQEAAACARkJEAAAAAKCREBEAAAAAaCREBAAAAAAaCREBAAAAgEZCRAAAAACgkRARAAAAAGgkRAQAAAAAGgkRAQAAAIBGQkQAAAAAoJEQEQAAAABoJEQEAAAAABoJEQEAAACARkJEAAAAAKCREBEAAAAAaCREBAAAAAAaCREBAAAAgEZCRAAAAACgkRARAAAAAGgkRAQAAAAAGgkRAQAAAIBGQkQAAAAAoJEQEQAAAABoJEQEAAAAABoJEQEAAACARkJEAAAAAKCREPH/t2MHAgAAMBCE3p96BDuCwggAAAAASBIRAAAAAEgSEQAAAABIEhEAAAAASBIRAAAAAEgSEQAAAABIEhEAAAAASBIRAAAAAEgSEQAAAAD4bTvidvqpK7BBngAAAABJRU5ErkJggg==;" vertex="1" parent="1">
          <mxGeometry x="1367.92" y="340" width="94.16" height="38.55" as="geometry" />
        </mxCell>
        <mxCell id="ePLq6_zW1clj5C6yVysr-25" value="&lt;b&gt;&lt;i&gt;Updates on the Slack Channel&lt;/i&gt;&lt;/b&gt;" style="text;strokeColor=none;align=center;fillColor=none;html=1;verticalAlign=middle;whiteSpace=wrap;rounded=0;" vertex="1" parent="1">
          <mxGeometry x="1290" y="385" width="250" height="20" as="geometry" />
        </mxCell>
      </root>
    </mxGraphModel>
  </diagram>
</mxfile>
